<?xml version="1.0" standalone="no"?>
<!DOCTYPE svg PUBLIC "-//W3C//DTD SVG 20010904//EN"
 "http://www.w3.org/TR/2001/REC-SVG-20010904/DTD/svg10.dtd">
<svg version="1.0" xmlns="http://www.w3.org/2000/svg"
 width="700.000000pt" height="700.000000pt" viewBox="0 0 700.000000 700.000000"
 preserveAspectRatio="xMidYMid meet">
<metadata>
Created by potrace 1.14, written by Peter Selinger 2001-2017
</metadata>
<g transform="translate(0.000000,700.000000) scale(0.100000,-0.100000)"
fill="#000000" stroke="none">
<path d="M589 6985 c-144 -29 -268 -96 -373 -201 -76 -75 -123 -147 -163 -244
-56 -141 -53 30 -51 -3075 3 -2696 4 -2863 21 -2920 76 -260 270 -452 527
-522 62 -17 217 -18 2950 -18 3239 0 2929 -7 3095 75 189 93 325 260 382 470
17 62 18 217 18 2950 0 2733 -1 2888 -18 2950 -70 257 -262 451 -522 527 -57
17 -223 18 -2930 20 -2351 1 -2882 -1 -2936 -12z m1870 -1911 l21 -27 0 -1547
0 -1547 -21 -27 -20 -26 -621 0 c-685 0 -658 -3 -658 62 0 17 132 291 339 706
186 373 346 702 355 732 20 68 20 132 0 200 -9 30 -169 359 -355 732 -192 384
-339 690 -339 705 0 14 7 35 17 45 15 17 48 18 639 18 l623 0 20 -26z m1613 9
c10 -9 18 -29 18 -45 0 -17 -228 -484 -599 -1227 -520 -1038 -603 -1199 -625
-1205 -32 -8 -72 7 -85 33 -8 14 -11 393 -11 1220 0 1188 0 1201 20 1221 20
20 33 20 642 20 564 0 623 -2 640 -17z m1752 -5 c9 -12 16 -33 16 -45 0 -33
-1545 -3119 -1565 -3127 -9 -3 -312 -6 -673 -6 -723 0 -692 -3 -692 62 0 33
1541 3123 1562 3131 7 3 311 6 675 6 l662 1 15 -22z m-257 -2543 c163 -325
272 -552 272 -569 1 -16 -6 -38 -16 -48 -15 -17 -46 -18 -571 -18 -612 0 -592
-2 -592 62 0 24 512 1068 543 1106 6 8 26 12 51 10 l41 -3 272 -540z"/>
</g>
</svg>
