<svg width="1200" height="1200" viewBox="0 0 1200 1200" fill="none" xmlns="http://www.w3.org/2000/svg">
<rect width="1200" height="1200" rx="360" fill="#050505"/>
<path d="M325.305 749.39C304.49 791.02 334.762 840 381.305 840V840C405.02 840 426.699 826.601 437.305 805.39L631.056 417.889C644.354 391.293 625.014 360 595.279 360L493.333 360H344.721C314.986 360 295.646 391.293 308.944 417.889L394.292 588.584C397.885 595.771 397.885 604.23 394.292 611.416L325.305 749.39Z" fill="white"/>
<path d="M805.708 611.416C802.115 604.23 802.115 595.771 805.708 588.584L874.695 450.61C895.51 408.981 865.238 360 818.695 360V360C794.98 360 773.301 373.399 762.695 394.61L568.944 782.112C555.646 808.708 574.986 840 604.721 840H706.667H855.279C885.014 840 904.354 808.708 891.056 782.112L805.708 611.416Z" fill="white"/>
<path d="M325.305 749.39C304.49 791.02 334.762 840 381.305 840V840C405.02 840 426.699 826.601 437.305 805.39L631.056 417.889C644.354 391.293 625.014 360 595.279 360L493.333 360H344.721C314.986 360 295.646 391.293 308.944 417.889L394.292 588.584C397.885 595.771 397.885 604.23 394.292 611.416L325.305 749.39Z" stroke="#D9D9D9" stroke-width="3.42857" stroke-miterlimit="1.41421" stroke-linejoin="round"/>
<path d="M805.708 611.416C802.115 604.23 802.115 595.771 805.708 588.584L874.695 450.61C895.51 408.981 865.238 360 818.695 360V360C794.98 360 773.301 373.399 762.695 394.61L568.944 782.112C555.646 808.708 574.986 840 604.721 840H706.667H855.279C885.014 840 904.354 808.708 891.056 782.112L805.708 611.416Z" stroke="#D9D9D9" stroke-width="3.42857" stroke-miterlimit="1.41421" stroke-linejoin="round"/>
<g opacity="0.2" filter="url(#filter0_f_3273_22433)">
<path d="M731.569 360H832L592.431 840H492L731.569 360Z" fill="#050505"/>
</g>
<defs>
<filter id="filter0_f_3273_22433" x="412" y="280" width="500" height="640" filterUnits="userSpaceOnUse" color-interpolation-filters="sRGB">
<feFlood flood-opacity="0" result="BackgroundImageFix"/>
<feBlend mode="normal" in="SourceGraphic" in2="BackgroundImageFix" result="shape"/>
<feGaussianBlur stdDeviation="40" result="effect1_foregroundBlur_3273_22433"/>
</filter>
</defs>
</svg>
