<svg width="512" height="512" viewBox="0 0 512 512" fill="none" xmlns="http://www.w3.org/2000/svg">
<rect width="512" height="512" rx="160" fill="black"/>
<path fill-rule="evenodd" clip-rule="evenodd" d="M185.302 251.87C185.302 250.545 184.994 249.239 184.401 248.054L159.749 198.75C156.913 193.076 161.038 186.4 167.382 186.4H214.775H262.168C268.512 186.4 272.638 193.076 269.801 198.75L208.976 320.4C207.53 323.291 204.575 325.117 201.343 325.117H167.382C161.038 325.117 156.913 318.442 159.749 312.768L184.401 263.464C184.994 262.279 185.302 260.972 185.302 259.648V251.87ZM297.333 325.117H249.94C243.597 325.117 239.471 318.442 242.308 312.768L303.133 191.117C304.578 188.227 307.533 186.4 310.765 186.4H345.353C351.636 186.4 355.765 192.962 353.046 198.626L327.585 251.668C327.011 252.864 326.724 254.177 326.746 255.503L326.876 263.288C326.898 264.614 327.229 265.917 327.843 267.093L351.605 312.637C354.569 318.318 350.447 325.117 344.039 325.117H297.333Z" fill="white"/>
<g opacity="0.2" filter="url(#filter0_f_1138_2894)">
<path d="M303.4 186.7H332.2L263.5 325.6H234.7L303.4 186.7Z" fill="#050505"/>
</g>
<defs>
<filter id="filter0_f_1138_2894" x="186.7" y="138.7" width="193.5" height="234.9" filterUnits="userSpaceOnUse" color-interpolation-filters="sRGB">
<feFlood flood-opacity="0" result="BackgroundImageFix"/>
<feBlend mode="normal" in="SourceGraphic" in2="BackgroundImageFix" result="shape"/>
<feGaussianBlur stdDeviation="24" result="effect1_foregroundBlur_1138_2894"/>
</filter>
</defs>
</svg>
