<svg width="560" height="560" viewBox="0 0 560 560" fill="none" xmlns="http://www.w3.org/2000/svg">
<rect width="560" height="560" fill="black"/>
<path fill-rule="evenodd" clip-rule="evenodd" d="M161.12 201.057C162.487 198.846 164.901 197.5 167.5 197.5H392.5C395.078 197.5 397.475 198.824 398.848 201.006C400.221 203.188 400.377 205.922 399.261 208.245L363.386 282.985L399.149 351.531C400.362 353.856 400.273 356.645 398.914 358.888C397.554 361.13 395.122 362.5 392.5 362.5H167.5C164.901 362.5 162.487 361.154 161.12 358.943C159.754 356.732 159.629 353.971 160.792 351.646L196.615 280L160.792 208.354C159.629 206.029 159.754 203.268 161.12 201.057ZM348.293 279.767L380.581 212.5H322.135L254.635 347.5H312.954L348.293 279.767ZM329.872 347.5H380.128L355 299.339L329.872 347.5ZM250 323.23L305.365 212.5H250V323.23ZM235 212.5H179.635L211.708 276.646C212.764 278.757 212.764 281.243 211.708 283.354L179.635 347.5H235V212.5Z" fill="#EBEBEB"/>
</svg>
